<svg width="26" height="28" fill="none" xmlns="http://www.w3.org/2000/svg"><g clip-path="url(#clip0)"><path d="M13.328.006c-5.28-.192-9.616 4.36-9.616 10.003 0 6.405 5.707 11.052 8.905 17.736.163.34.616.34.78 0 2.893-6.014 7.838-10.046 8.755-15.84.95-5.996-3.18-11.694-8.824-11.9zm-.322 15.246c-2.688 0-4.868-2.347-4.868-5.243 0-2.895 2.18-5.242 4.868-5.242 2.69 0 4.869 2.347 4.869 5.242 0 2.896-2.18 5.243-4.869 5.243z" fill="#70987E"/></g><defs><clipPath id="clip0"><path fill="#fff" d="M0 0h26v28H0z"/></clipPath></defs></svg>