<svg width="23" height="23" fill="none" xmlns="http://www.w3.org/2000/svg"><path d="M9.574.001c-2.107.093-3.988.934-5.44 2.43C.286 6.398.36 13.874.381 14.7l.001 7.797c0 .277.225.502.502.502h7.7a.502.502 0 00.502-.502v-7.7a.502.502 0 00-.502-.502H4.649c0-.643.078-6.35 2.555-8.895a3.602 3.602 0 012.427-1.125.501.501 0 00.467-.5V.502A.503.503 0 009.574 0zM22.468.14a.486.486 0 00-.37-.139c-2.106.093-3.987.934-5.439 2.43-3.847 3.966-3.773 11.443-3.752 12.27v7.797c0 .277.225.502.502.502h7.7a.502.502 0 00.502-.502v-7.7a.502.502 0 00-.502-.502h-3.935c.001-.643.079-6.35 2.556-8.895a3.602 3.602 0 012.427-1.125.502.502 0 00.466-.5V.502a.502.502 0 00-.155-.363z" fill="#70987E"/></svg>