<svg width="26" height="18" viewBox="0 0 26 18" fill="none" xmlns="http://www.w3.org/2000/svg">
<path d="M16.8796 0.421276C17.1303 0.170625 17.5364 0.17061 17.787 0.421276C17.787 0.421279 17.787 0.421282 17.787 0.421284L25.912 8.54628C26.1627 8.79693 26.1627 9.20302 25.912 9.45364L17.787 17.5786C17.6617 17.7039 17.4973 17.7666 17.3333 17.7666C17.1692 17.7666 17.0049 17.7039 16.8796 17.5786L16.8796 17.5786C16.6289 17.328 16.6289 16.9219 16.8796 16.6713L23.9093 9.64166H0.541662C0.187027 9.64166 -0.100021 9.35461 -0.100021 8.99998C-0.100021 8.64533 0.18709 8.35829 0.541712 8.35829H23.9093L16.8796 1.32863C16.629 1.07798 16.629 0.67189 16.8796 0.421276ZM16.8796 0.421276L16.9504 0.491987L16.8797 0.421267C16.8797 0.42127 16.8797 0.421273 16.8796 0.421276Z" fill="#E3C57E" stroke="#E3C57E" stroke-width="0.2"/>
</svg>
