<svg width="23" height="23" viewBox="0 0 23 23" fill="none" xmlns="http://www.w3.org/2000/svg">
<path d="M9.57379 0.00100136C7.46681 0.0943336 5.58562 0.93482 4.13396 2.43089C0.286285 6.39774 0.360299 13.8743 0.381373 14.7013L0.382126 22.4982C0.382126 22.7752 0.606925 23 0.883909 23H8.58378C8.86076 23 9.08556 22.7752 9.08556 22.4982V14.7981C9.08556 14.5211 8.86076 14.2963 8.58378 14.2963H4.64854C4.64904 13.6533 4.72707 7.94649 7.20412 5.40094C7.8745 4.712 8.66833 4.34344 9.63125 4.27595C9.89443 4.25738 10.0977 4.03885 10.0977 3.77542V0.502535C10.0977 0.365547 10.0417 0.235085 9.94286 0.139996C9.844 0.0451603 9.71254 -0.00752831 9.57379 0.00100136Z" fill="#70987E"/>
<path d="M22.4682 0.139746C22.3691 0.0451603 22.2407 -0.00752831 22.0989 0.00100136C19.9919 0.0943336 18.1108 0.93482 16.6593 2.43089C12.8117 6.39749 12.8857 13.8743 12.9068 14.7013L12.9073 22.4982C12.9073 22.7752 13.1321 23 13.409 23H21.1092C21.3862 23 21.6109 22.7752 21.6109 22.4982V14.7981C21.6109 14.5211 21.3862 14.2963 21.1092 14.2963H17.1742C17.1752 13.6533 17.253 7.94649 19.7295 5.40094C20.3999 4.712 21.1937 4.34344 22.1566 4.27595C22.4196 4.25738 22.623 4.03885 22.623 3.77542V0.502535C22.623 0.365547 22.5673 0.234583 22.4682 0.139746Z" fill="#70987E"/>
</svg>
