<svg width="49" height="32" viewBox="0 0 49 32" fill="none" xmlns="http://www.w3.org/2000/svg">
<path d="M47.979 15H3.48515L17.0551 1.70702C17.4539 1.31637 17.4539 0.683555 17.0551 0.292992C16.6563 -0.0976641 16.0103 -0.0976641 15.6116 0.292992L0.299096 15.293C-0.0996987 15.6837 -0.0996987 16.3165 0.299096 16.707L15.6116 31.707C15.8109 31.9023 16.0722 32 16.3334 32C16.5946 32 16.8557 31.9023 17.0552 31.707C17.454 31.3164 17.454 30.6836 17.0552 30.293L3.48515 17.0001H47.9791C48.5434 17.0001 49 16.5528 49 16.0001C49 15.4473 48.5433 15 47.979 15Z" fill="#70987E"/>
</svg>
