<svg width="26" height="28" viewBox="0 0 26 28" fill="none" xmlns="http://www.w3.org/2000/svg">
<g clip-path="url(#clip0)">
<path d="M13.3281 0.00583594C8.04801 -0.185793 3.71191 4.36658 3.71191 10.0095C3.71191 16.4136 9.41869 21.0613 12.6173 27.7452C12.7797 28.0846 13.2334 28.0851 13.3963 27.7457C16.2899 21.7315 21.2355 17.6987 22.1521 11.9047C23.1011 5.90899 18.9725 0.210767 13.3281 0.00583594ZM13.0064 15.2525C10.3176 15.2525 8.13786 12.905 8.13786 10.0095C8.13786 7.11399 10.3177 4.76652 13.0064 4.76652C15.6951 4.76652 17.8749 7.11399 17.8749 10.0095C17.8749 12.905 15.6951 15.2525 13.0064 15.2525Z" fill="#70987E"/>
</g>
<defs>
<clipPath id="clip0">
<rect width="26" height="28" fill="white"/>
</clipPath>
</defs>
</svg>
