<svg width="80" height="80" viewBox="0 0 80 80" fill="none" xmlns="http://www.w3.org/2000/svg">
<path fill-rule="evenodd" clip-rule="evenodd" d="M0 40C0 17.9444 17.9427 0 40 0C62.0573 0 80 17.9444 80 40C80 62.0556 62.0573 80 40 80C17.9427 80 0 62.0556 0 40ZM78 40C78 19.0132 60.9868 2 40 2C19.0132 2 2 19.0132 2 40C2 60.9868 19.0132 78 40 78C60.9868 78 78 60.9868 78 40Z" fill="#E3C57E"/>
<path d="M35 25V55C35 56 34 57 32.5 57C31 57 30 56 30 55V25C30 24 31 23 32.5 23C34 23 35 24 35 25Z" fill="#E3C57E"/>
<path d="M50 25V55C50 56 49 57 47.5 57C46 57 45 56 45 55V25C45 24 46 23 47.5 23C49 23 50 24 50 25Z" fill="#E3C57E"/>
</svg>
