<svg width="28" height="28" viewBox="0 0 28 28" fill="none" xmlns="http://www.w3.org/2000/svg">
<path d="M19.3744 0H6.8912C5.8512 0 5 0.8504 5 1.8912V26.108C5 27.1488 5.8512 28 6.8912 28H19.3744C20.4144 28 21.2656 27.1504 21.2656 26.1088V1.8912C21.2656 0.8504 20.4144 0 19.3744 0ZM11.136 1.3632H15.1296C15.256 1.3632 15.3584 1.4656 15.3584 1.5928C15.3584 1.7192 15.256 1.8216 15.1296 1.8216H11.136C11.0096 1.8216 10.9072 1.7192 10.9072 1.5928C10.9072 1.4656 11.0096 1.3632 11.136 1.3632ZM13.1328 27.0544C12.6104 27.0544 12.1872 26.6312 12.1872 26.108C12.1872 25.5848 12.6104 25.1624 13.1328 25.1624C13.6552 25.1624 14.0784 25.5848 14.0784 26.108C14.0784 26.6312 13.6552 27.0544 13.1328 27.0544ZM19.9496 24.5H6.316V2.9992H19.9496V24.5Z" fill="#70987E"/>
</svg>
