<svg width="49" height="32" viewBox="0 0 49 32" fill="none" xmlns="http://www.w3.org/2000/svg">
<path d="M1.02096 15H45.5149L31.9449 1.70702C31.5461 1.31637 31.5461 0.683555 31.9449 0.292992C32.3437 -0.0976641 32.9897 -0.0976641 33.3884 0.292992L48.7009 15.293C49.0997 15.6837 49.0997 16.3165 48.7009 16.707L33.3884 31.707C33.1891 31.9023 32.9278 32 32.6666 32C32.4054 32 32.1443 31.9023 31.9448 31.707C31.546 31.3164 31.546 30.6836 31.9448 30.293L45.5149 17.0001H1.02086C0.456596 17.0001 0 16.5528 0 16.0001C0 15.4473 0.456696 15 1.02096 15Z" fill="#70987E"/>
</svg>
