<svg width="80" height="80" viewBox="0 0 80 80" fill="none" xmlns="http://www.w3.org/2000/svg">
<path d="M40 0C17.9427 0 0 17.9444 0 40C0 62.0556 17.9427 80 40 80C62.0573 80 80 62.0556 80 40C80 17.9444 62.0573 0 40 0ZM55.9017 41.4014L32.5684 56.4014C32.295 56.5788 31.9792 56.6667 31.6667 56.6667C31.3933 56.6667 31.1166 56.5983 30.8692 56.4633C30.332 56.1703 30 55.6103 30 55V25C30 24.3897 30.332 23.8297 30.8692 23.5367C31.3966 23.247 32.0573 23.2648 32.5684 23.5986L55.9017 38.5986C56.377 38.9045 56.6667 39.4336 56.6667 40C56.6667 40.5664 56.377 41.0953 55.9017 41.4014Z" fill="#E3C57E"/>
</svg>
